<svg version="1.1" id="Layer_1" xmlns="http://www.w3.org/2000/svg" xmlns:xlink="http://www.w3.org/1999/xlink" x="0px" y="0px"
	 width="100%" viewBox="0 0 496 496" enable-background="new 0 0 496 496" xml:space="preserve">
<path fill="#000000" opacity="1.000000" stroke="none" 
	d="
M112.217812,372.760071 
	C88.298500,344.889221 72.985336,313.340363 68.647888,277.089081 
	C59.431515,200.061050 87.523277,139.671341 151.323212,96.005554 
	C173.335922,80.939667 198.013046,71.778351 224.553986,68.644676 
	C294.106079,60.432686 351.563171,83.002861 396.004425,137.427216 
	C416.375610,162.374496 428.576111,191.329422 433.176514,222.929352 
	C441.136536,277.606445 427.554718,326.795959 392.120575,369.545807 
	C368.369568,398.200439 338.381287,417.548737 302.764099,428.025330 
	C277.395691,435.487335 251.545013,437.361298 225.273911,433.600006 
	C180.245789,427.153168 142.822266,406.697571 112.217812,372.760071 
M429.606964,230.210236 
	C428.340485,212.234070 423.212860,195.212433 415.998871,178.879898 
	C383.610352,105.552208 305.954590,58.928070 220.107925,73.489777 
	C180.971146,80.128334 147.407745,98.157219 120.279320,127.239494 
	C84.540703,165.552094 67.522041,210.763611 71.173683,263.488098 
	C72.533432,283.120850 76.818443,301.904297 84.343643,320.010895 
	C117.072456,398.760620 200.348892,444.438110 283.914459,428.197815 
	C341.571289,416.992706 384.109131,384.317963 411.694244,332.441071 
	C424.745026,307.897644 430.645233,281.402466 431.496277,253.790070 
	C431.729858,246.212265 430.422028,238.586929 429.606964,230.210236 
z"/>
<path fill="#000000" opacity="1.000000" stroke="none" 
	d="
M382.429810,240.216370 
	C383.615448,258.903381 382.041626,276.863281 375.608795,294.147980 
	C359.000610,338.772949 327.919830,368.101471 281.518188,379.082275 
	C231.441925,390.932709 188.216476,376.712616 153.116425,339.440735 
	C134.884750,320.080963 123.862030,296.578888 120.644875,269.968048 
	C113.572762,211.470673 136.062286,166.941162 185.811417,136.333160 
	C204.514648,124.826057 225.490067,119.920128 247.701248,119.469604 
	C276.158051,118.892418 302.094879,126.012512 325.394012,142.215958 
	C354.753357,162.633987 373.134308,190.459656 380.263489,225.574127 
	C381.217529,230.273132 381.716309,235.064545 382.429810,240.216370 
M369.613831,300.143616 
	C379.908478,275.627960 381.908478,250.370453 376.495911,224.415466 
	C364.392944,166.377945 313.192749,125.062973 258.536407,123.054207 
	C237.248154,122.271812 216.834244,125.167267 197.335083,134.292221 
	C142.614044,159.899841 113.307220,217.961639 124.666344,275.483582 
	C138.711685,346.608368 208.860428,393.341278 279.886627,376.081421 
	C322.023895,365.841797 351.571655,340.261261 369.613831,300.143616 
z"/>
<path fill="#000000" opacity="1.000000" stroke="none" 
	d="
M103.598206,252.686874 
	C99.190506,255.568283 105.541985,256.878876 104.022842,259.426147 
	C101.753693,260.166595 100.845642,256.782715 98.299355,257.280396 
	C96.379128,260.619659 96.940987,264.763702 95.572365,269.356873 
	C93.748222,264.881409 95.957314,260.443848 92.797058,257.254578 
	C90.779465,256.872772 90.021469,259.576569 87.905167,259.286438 
	C86.768555,257.233337 89.475227,256.232513 89.255775,254.208847 
	C88.208099,250.895660 83.937889,253.580994 82.145401,250.711182 
	C84.095352,248.723145 87.552467,250.762115 89.157028,248.206497 
	C89.906853,246.225937 87.332718,245.137360 87.676376,243.237320 
	C89.703583,242.480087 90.491516,245.040329 92.240059,244.680405 
	C95.680801,242.066254 94.103905,237.954239 95.128716,234.017914 
	C96.865891,235.826859 96.219093,237.735580 96.657303,239.286621 
	C97.620193,242.694794 97.469589,247.549408 103.016869,242.968933 
	C104.211182,245.406265 101.634109,246.222031 101.957283,248.196716 
	C104.085114,251.268646 108.242096,248.443695 111.199173,250.961182 
	C109.019264,253.223633 106.219696,252.035889 103.598206,252.686874 
z"/>
<path fill="#000000" opacity="1.000000" stroke="none" 
	d="
M407.500458,242.017563 
	C409.136810,248.421356 412.148590,241.810165 414.591278,243.244751 
	C407.821350,253.009155 419.327667,247.846954 420.946869,250.773041 
	C420.587097,252.407211 419.427246,252.158997 418.510620,252.257629 
	C411.619110,252.999146 411.618134,252.990051 414.624298,258.898987 
	C413.338684,260.041107 412.594879,258.702637 411.696594,258.231628 
	C410.848022,257.786682 410.244568,256.816254 408.898529,257.091217 
	C406.163940,260.098267 408.310333,264.348816 406.708221,267.876251 
	C405.088928,266.738953 405.215973,265.122589 404.990356,263.740753 
	C403.887024,256.984406 403.922485,256.978607 398.019501,259.223541 
	C397.278687,256.937531 400.455688,256.111023 399.965637,253.961853 
	C398.201691,250.908249 394.054138,253.712753 392.015900,250.713821 
	C394.311584,248.628189 397.745514,250.795731 399.831543,248.464111 
	C400.806763,246.594650 398.339172,245.641617 398.585724,243.877563 
	C400.454926,242.705658 401.315765,245.518860 403.555267,244.803864 
	C405.918365,242.201141 404.142212,237.783401 406.988892,233.816025 
	C407.168457,236.973587 407.301605,239.315048 407.500458,242.017563 
z"/>
<path fill="#000000" opacity="1.000000" stroke="none" 
	d="
M343.075653,373.917786 
	C338.741028,368.318237 339.148712,366.117889 344.533630,364.169617 
	C347.194427,363.206909 349.343048,363.963654 350.218323,366.498810 
	C350.981659,368.709625 352.052124,370.562561 353.879089,371.940826 
	C352.177063,374.041779 350.210388,371.877838 348.537964,372.974396 
	C346.662048,374.204315 348.973419,376.257965 347.357483,377.417511 
	C345.095551,377.476044 344.590698,375.329315 343.075653,373.917786 
z"/>
<path fill="#000000" opacity="1.000000" stroke="none" 
	d="
M262.989319,399.027283 
	C265.409637,402.577057 261.506042,405.925354 264.112030,409.421844 
	C257.378906,407.105408 257.378906,407.105408 254.600220,409.950226 
	C253.291977,405.845337 252.446548,401.533722 254.644318,398.402222 
	C256.138275,396.273590 260.101074,396.345947 262.989319,399.027283 
z"/>
<path fill="#000000" opacity="1.000000" stroke="none" 
	d="
M105.687943,184.695679 
	C107.437218,184.599396 108.552429,183.975891 109.533524,182.999954 
	C109.477486,180.755554 106.328194,181.229965 106.242142,179.122223 
	C109.434364,178.418472 113.606407,180.166016 117.004250,183.697998 
	C115.209396,186.190216 111.665344,185.249771 109.665550,187.498428 
	C110.039024,189.448318 113.435173,188.911346 113.185974,192.261307 
	C108.875885,191.777786 105.619926,189.436707 102.250336,187.503662 
	C102.723465,185.318863 104.135178,185.167313 105.687943,184.695679 
z"/>
<path fill="#000000" opacity="1.000000" stroke="none" 
	d="
M104.329788,314.604279 
	C102.634293,313.036621 104.042244,312.373779 104.975891,311.947998 
	C107.808350,310.656311 110.399162,308.736786 113.779259,308.268341 
	C115.724236,311.733185 111.402214,313.914612 112.095779,316.998627 
	C114.046761,317.783295 115.730652,315.123108 117.717125,316.571411 
	C115.686813,319.700775 112.449799,321.438721 107.174942,322.101166 
	C106.321846,318.704742 109.302711,316.336975 109.556892,313.165497 
	C107.652206,312.770599 106.404869,314.692596 104.329788,314.604279 
z"/>
<path fill="#000000" opacity="1.000000" stroke="none" 
	d="
M345.620972,131.965729 
	C343.966461,131.071213 342.589905,133.190079 340.975739,131.591873 
	C341.807098,128.182159 344.393860,125.707130 346.749146,123.369400 
	C349.406250,120.732094 351.199280,123.848076 352.788269,125.421082 
	C355.016937,127.627327 355.022064,130.380661 352.549286,132.322525 
	C350.874939,133.637344 349.455078,135.108856 348.193451,136.785858 
	C345.737305,135.892380 347.330963,133.295059 345.620972,131.965729 
M351.149872,128.617416 
	C350.558411,127.005966 349.942139,125.252800 347.735809,126.568840 
	C346.885437,127.076111 346.484924,128.253723 347.228912,129.169815 
	C348.423767,130.641068 349.792389,131.388351 351.149872,128.617416 
z"/>
<path fill="#000000" opacity="1.000000" stroke="none" 
	d="
M229.742004,95.722763 
	C230.540039,101.799850 227.462936,105.291405 221.956024,105.256157 
	C220.196060,105.244888 219.125534,104.578468 218.839218,102.820122 
	C218.707077,102.008545 218.669525,101.181679 218.540771,100.369408 
	C218.115524,97.686729 215.598175,94.521301 219.685760,92.737450 
	C223.480576,91.081360 227.127213,91.241714 229.742004,95.722763 
M220.761719,97.106216 
	C221.185379,102.220535 222.577438,103.708107 225.236923,101.795364 
	C227.264603,100.337051 228.500946,98.176201 226.639313,95.947609 
	C224.831192,93.783081 222.672791,93.953537 220.761719,97.106216 
z"/>
<path fill="#000000" opacity="1.000000" stroke="none" 
	d="
M331.416382,373.901611 
	C336.221680,373.510681 338.902557,375.648529 339.211945,379.947510 
	C339.487640,383.778137 337.097076,386.190857 333.446106,386.911682 
	C329.796234,387.632294 327.222717,385.656281 326.148224,382.374115 
	C324.728973,378.038727 327.288513,375.563904 331.416382,373.901611 
M330.634277,383.778931 
	C333.356689,385.427612 335.038422,383.831299 336.183746,381.697083 
	C337.195190,379.812408 336.169769,378.212769 334.534241,377.103271 
	C332.979156,376.048309 331.377167,376.242432 330.022308,377.454498 
	C327.847717,379.399811 328.127899,381.414398 330.634277,383.778931 
z"/>
<path fill="#000000" opacity="1.000000" stroke="none" 
	d="
M374.508759,158.462280 
	C377.683502,156.055786 380.692963,155.897781 383.448669,158.158676 
	C385.629669,159.948074 386.524719,162.433670 385.532715,165.274841 
	C384.549713,168.090240 382.389587,169.432159 379.531219,169.700699 
	C377.193054,169.920364 375.317078,168.977539 374.039734,167.021637 
	C372.231262,164.252441 372.106323,161.468826 374.508759,158.462280 
M379.450806,167.273361 
	C382.143158,166.572342 383.371521,164.879730 382.680054,162.129379 
	C382.229858,160.338577 380.928162,159.311310 379.044250,159.388123 
	C376.875275,159.476562 375.759613,160.933563 375.521454,162.894287 
	C375.235657,165.247620 376.783173,166.475861 379.450806,167.273361 
z"/>
<path fill="#000000" opacity="1.000000" stroke="none" 
	d="
M195.213318,110.961182 
	C191.215500,110.220184 189.846298,113.092178 187.685654,116.730240 
	C186.336914,111.042358 186.533173,106.747978 188.275879,101.666542 
	C192.653961,104.431656 196.053680,107.173637 198.613907,110.863052 
	C197.166245,112.431953 196.368515,111.431847 195.213318,110.961182 
z"/>
<path fill="#000000" opacity="1.000000" stroke="none" 
	d="
M220.918304,407.403198 
	C218.117462,407.375641 217.328720,405.966278 217.627151,403.827759 
	C217.944611,401.552856 218.419525,399.299683 218.835098,397.038727 
	C219.169235,395.220856 220.467651,394.687073 222.092407,394.704742 
	C225.014053,394.736481 227.682083,395.462402 229.362076,398.082825 
	C230.839249,400.386932 230.679413,402.801819 229.236099,405.066376 
	C227.301605,408.101532 224.342361,407.950409 220.918304,407.403198 
M220.868820,400.304199 
	C220.233353,402.334778 220.012924,404.382416 222.514420,405.171570 
	C224.459076,405.785034 226.060318,404.721741 227.003662,403.007904 
	C228.005386,401.187958 227.688080,399.491638 225.849655,398.329865 
	C223.831329,397.054382 222.130600,397.187378 220.868820,400.304199 
z"/>
<path fill="#000000" opacity="1.000000" stroke="none" 
	d="
M382.103882,342.266205 
	C378.938019,344.515808 376.033600,344.888519 373.246765,342.420502 
	C371.221863,340.627289 370.494537,338.351501 371.386017,335.726074 
	C372.301544,333.029724 374.080994,331.141357 376.993866,330.803040 
	C379.669250,330.492279 381.844391,331.714020 383.333832,333.876160 
	C385.340515,336.789124 384.405182,339.492584 382.103882,342.266205 
M379.993622,340.391907 
	C381.679077,338.633423 382.411713,336.709106 380.461334,334.745026 
	C379.035004,333.308685 377.243591,332.934753 375.549622,334.340515 
	C374.254517,335.415314 372.998779,336.800323 373.910675,338.605347 
	C375.035950,340.832733 376.658936,342.471893 379.993622,340.391907 
z"/>
<path fill="#000000" opacity="1.000000" stroke="none" 
	d="
M264.166870,95.686890 
	C262.736877,97.966469 263.653107,100.212082 263.204590,102.544609 
	C260.446533,101.910629 258.148163,96.268936 254.952774,102.815041 
	C252.900238,97.966240 253.745712,94.126671 255.268860,90.650063 
	C256.005066,88.969635 258.577545,89.528954 260.320648,89.911339 
	C263.103394,90.521790 264.563019,92.308723 264.166870,95.686890 
M260.182556,95.823898 
	C262.016022,94.147667 261.254608,93.300461 259.218872,92.991287 
	C258.058411,92.815033 256.636169,92.703957 256.563080,94.362915 
	C256.461395,96.671219 258.009857,96.565689 260.182556,95.823898 
z"/>
<path fill="#000000" opacity="1.000000" stroke="none" 
	d="
M400.331360,193.577866 
	C404.056763,195.382629 405.594391,198.030334 404.595978,201.768250 
	C403.839539,204.600388 401.964600,206.147598 398.905731,206.362213 
	C395.393555,206.608643 393.359528,204.810730 391.952515,201.906128 
	C390.199310,198.286911 393.625916,192.001633 400.331360,193.577866 
M397.143097,196.025360 
	C395.266510,197.111145 394.017120,198.585480 394.600891,200.890198 
	C394.995941,202.449799 396.063385,203.474030 397.745850,203.659348 
	C399.405426,203.842133 400.851440,203.137283 401.544525,201.771469 
	C403.547272,197.824875 401.084991,196.472076 397.143097,196.025360 
z"/>
<path fill="#000000" opacity="1.000000" stroke="none" 
	d="
M172.206055,121.323227 
	C171.046463,118.064636 168.039856,115.832138 168.533432,112.081398 
	C175.524292,115.536842 176.281677,115.126762 176.000031,108.326340 
	C179.367676,109.636040 181.974045,114.143272 181.864044,118.552063 
	C179.541992,118.864746 179.253403,114.491325 176.091934,116.257332 
	C172.630081,118.191154 176.094162,120.776909 175.098190,122.820312 
	C173.528671,123.775673 173.031631,122.522217 172.206055,121.323227 
z"/>
<path fill="#000000" opacity="1.000000" stroke="none" 
	d="
M340.189850,118.358337 
	C339.797852,124.554665 336.336761,127.548279 331.792114,125.969582 
	C328.874573,124.956093 327.020782,122.815498 327.027283,119.684425 
	C327.033752,116.569908 328.703369,114.325523 331.838440,113.581688 
	C335.800385,112.641647 338.609772,114.122513 340.189850,118.358337 
M332.886139,123.514168 
	C336.632507,123.292664 338.433594,121.537460 336.932281,117.784851 
	C336.396271,116.445091 334.949493,115.533600 333.299438,115.779243 
	C331.738190,116.011658 330.605103,117.002594 330.027374,118.456032 
	C329.100922,120.787010 330.541748,122.124763 332.886139,123.514168 
z"/>
<path fill="#000000" opacity="1.000000" stroke="none" 
	d="
M131.078125,346.096558 
	C135.929840,342.318176 137.310654,342.881073 140.252441,349.565613 
	C137.804733,350.921021 137.299438,347.150269 135.123215,347.684601 
	C133.514740,349.555084 136.795609,350.722992 135.849274,352.634369 
	C133.509460,354.003937 132.821457,349.621826 130.378815,350.914154 
	C129.128433,353.553070 133.132248,354.478973 132.384628,357.284698 
	C129.186890,356.816284 127.566765,354.310760 126.771439,351.908905 
	C125.770729,348.886749 129.291397,348.108582 131.078125,346.096558 
z"/>
<path fill="#000000" opacity="1.000000" stroke="none" 
	d="
M133.504288,152.222794 
	C136.794708,154.293839 136.832504,148.936798 140.186661,150.039139 
	C139.260529,153.205917 137.444183,155.616898 134.372894,156.798126 
	C133.090286,157.291412 125.327888,150.537994 125.690002,149.275024 
	C126.543808,146.297104 128.280029,143.880203 131.503723,142.842590 
	C132.874146,145.707397 128.487213,146.590973 129.810959,149.165817 
	C132.110764,150.246597 132.668137,147.152420 134.775635,147.306946 
	C135.936539,149.276474 132.971191,150.210632 133.504288,152.222794 
z"/>
<path fill="#000000" opacity="1.000000" stroke="none" 
	d="
M324.890717,109.369873 
	C324.712494,113.885849 322.609344,115.881966 318.490021,114.593033 
	C316.342499,113.921074 314.763336,115.458092 312.102417,115.374542 
	C313.324158,111.281883 314.062378,106.815781 317.693207,104.984688 
	C320.339966,103.649887 323.175842,106.227318 324.890717,109.369873 
M317.823792,110.901604 
	C319.009094,112.308060 320.334076,113.209099 321.758545,111.305893 
	C322.656219,110.106499 321.840485,109.093826 320.802826,108.494659 
	C318.757568,107.313644 317.804565,108.253983 317.823792,110.901604 
z"/>
<path fill="#000000" opacity="1.000000" stroke="none" 
	d="
M98.788162,295.734711 
	C102.697250,296.212250 106.227821,296.714905 110.610855,297.338959 
	C108.033669,302.346893 104.802383,305.281616 99.337601,308.292358 
	C101.507713,303.344177 102.263725,300.028564 97.594574,298.020569 
	C96.170448,297.408142 96.835136,296.080933 98.788162,295.734711 
z"/>
<path fill="#000000" opacity="1.000000" stroke="none" 
	d="
M397.705261,307.216034 
	C391.667786,306.733917 388.723907,303.552124 389.981476,299.233582 
	C390.901001,296.075775 393.002808,293.942566 396.395111,294.019684 
	C399.445129,294.089020 401.776123,295.742432 402.497223,298.890503 
	C403.398621,302.825562 401.951813,305.660431 397.705261,307.216034 
M393.771271,303.756805 
	C396.736725,305.675354 398.845490,304.335541 400.187866,301.709595 
	C401.201080,299.727661 399.735687,298.326904 398.170715,297.262360 
	C396.764832,296.306000 395.370667,296.460785 394.132019,297.597260 
	C392.339355,299.242126 391.799835,301.106995 393.771271,303.756805 
z"/>
<path fill="#000000" opacity="1.000000" stroke="none" 
	d="
M100.244827,197.664398 
	C103.938530,198.010498 107.276176,195.583923 111.589653,197.885651 
	C106.581604,200.271561 105.083633,203.577896 107.887764,209.027405 
	C102.871010,206.693253 100.254349,203.494598 97.744720,200.411652 
	C96.341972,198.688461 98.176071,197.895050 100.244827,197.664398 
z"/>
<path fill="#000000" opacity="1.000000" stroke="none" 
	d="
M192.452271,397.403625 
	C190.059875,394.044830 187.143311,394.189941 183.944702,395.761078 
	C184.646530,392.084076 188.210495,388.385193 193.464584,385.944733 
	C194.920868,390.081787 194.822128,394.378632 194.451569,398.422058 
	C194.267960,400.425537 192.951675,398.893860 192.452271,397.403625 
z"/>
<path fill="#000000" opacity="1.000000" stroke="none" 
	d="
M172.927124,378.120239 
	C174.234070,376.946594 175.555252,376.506866 175.264175,378.537048 
	C174.972733,380.569611 174.203934,382.261383 176.673721,383.542572 
	C179.463791,384.989899 179.881134,382.008881 181.491867,381.305939 
	C181.749908,381.193359 182.121414,381.340729 183.102509,381.424377 
	C182.125992,385.566254 179.837296,388.708649 177.327026,392.199371 
	C175.013245,389.952728 178.242340,386.844727 175.006042,385.279358 
	C171.888626,383.771515 171.422943,387.668610 168.892548,387.756927 
	C168.296631,383.675171 171.468140,381.406830 172.927124,378.120239 
z"/>
<path fill="#000000" opacity="1.000000" stroke="none" 
	d="
M116.870804,338.528442 
	C118.774055,335.087097 122.575340,332.480316 126.340347,331.678131 
	C127.659798,333.505493 124.720009,333.963684 125.213211,335.803619 
	C126.377808,337.707214 129.796173,335.683044 131.242126,339.277283 
	C125.675552,337.896484 123.786682,341.567993 122.600357,346.209930 
	C119.799118,343.746643 121.978836,341.418304 121.187813,339.662628 
	C120.064316,337.732269 118.300591,339.632263 116.870804,338.528442 
z"/>
<path fill="#000000" opacity="1.000000" stroke="none" 
	d="
M235.682617,93.921417 
	C235.695312,92.412895 235.345901,91.149429 236.983032,90.460091 
	C239.162125,90.989609 237.718170,94.996002 241.186966,94.853966 
	C244.458344,94.720024 244.307480,91.966133 245.876282,89.847733 
	C248.115707,93.941917 247.136475,97.702698 247.103058,101.861816 
	C244.192337,101.077263 244.977707,96.987160 241.723038,97.548874 
	C238.783356,98.056236 239.526947,100.902931 238.214218,102.858734 
	C234.936813,100.496696 236.382156,97.068031 235.682617,93.921417 
z"/>
<path fill="#000000" opacity="1.000000" stroke="none" 
	d="
M311.372070,385.830505 
	C312.148193,382.727570 314.724030,382.545471 316.846252,381.921906 
	C319.044586,381.275940 320.725708,382.456818 321.759399,384.382660 
	C322.859955,386.433014 322.405762,388.524567 320.569305,389.669434 
	C318.405670,391.018372 317.254974,392.647339 317.691284,396.261353 
	C313.602295,393.235535 312.935822,389.445190 311.372070,385.830505 
M317.170258,388.491821 
	C318.645447,387.879913 319.930756,387.055176 318.833252,385.257874 
	C318.249512,384.301910 317.066681,384.293335 316.263275,385.025208 
	C314.966431,386.206482 314.682556,387.488159 317.170258,388.491821 
z"/>
<path fill="#000000" opacity="1.000000" stroke="none" 
	d="
M160.441895,369.865967 
	C164.891510,369.419067 167.650742,370.695343 168.802582,376.224548 
	C165.024002,374.294769 162.264343,369.975220 159.379745,374.160065 
	C156.473557,378.376251 161.277573,379.533722 164.061935,381.663574 
	C160.093307,383.812256 158.033463,381.745667 156.410965,379.233978 
	C154.236526,375.867798 155.547577,372.781403 160.441895,369.865967 
z"/>
<path fill="#000000" opacity="1.000000" stroke="none" 
	d="
M293.545349,102.268311 
	C291.991241,99.929306 291.590271,97.731293 294.270172,96.648003 
	C297.109192,95.500389 299.629272,96.300240 301.229950,99.213104 
	C299.527527,100.879890 297.523315,97.942406 295.928467,100.218369 
	C296.756836,102.882332 303.447357,104.768593 298.108887,108.546074 
	C295.282684,110.545860 292.258759,109.021973 290.471161,105.664627 
	C292.821106,104.090057 294.476074,107.893440 296.643005,105.925270 
	C297.016174,103.772926 294.765625,103.641548 293.545349,102.268311 
z"/>
<path fill="#000000" opacity="1.000000" stroke="none" 
	d="
M238.386887,399.906738 
	C241.618912,403.918121 242.841553,403.598022 246.288040,397.457123 
	C248.321304,402.158630 246.310242,405.814240 245.951035,409.950012 
	C243.072998,408.824982 244.386124,405.063141 241.133102,404.877289 
	C237.624634,404.676819 239.255325,408.935974 236.149887,409.480011 
	C235.039215,405.785248 235.091141,402.006561 236.539658,398.624603 
	C237.432114,396.540955 238.089417,398.442383 238.386887,399.906738 
z"/>
<path fill="#000000" opacity="1.000000" stroke="none" 
	d="
M122.443130,157.684372 
	C123.830986,162.235229 128.247971,159.455765 130.563416,161.557556 
	C129.591217,164.508591 126.575455,162.547256 124.915092,164.143494 
	C123.623833,165.687973 126.161255,166.949615 125.346481,169.206833 
	C121.251579,167.961182 118.346916,165.306396 115.234184,162.434265 
	C117.538872,160.673203 118.595703,162.626801 120.063301,162.661133 
	C121.499840,160.387817 119.679642,157.938110 120.195244,155.582275 
	C122.147606,154.863464 122.140686,156.231216 122.443130,157.684372 
z"/>
<path fill="#000000" opacity="1.000000" stroke="none" 
	d="
M168.000427,126.357651 
	C166.075516,130.197510 162.971115,130.869705 159.487610,130.107727 
	C156.962402,129.555359 155.739761,127.493950 155.260056,125.100395 
	C154.395798,120.788139 157.695160,117.726799 162.702118,118.154114 
	C162.985123,120.051743 161.176788,119.952156 160.264603,120.650444 
	C158.280762,122.169098 157.473846,124.035423 158.939728,126.207626 
	C160.503952,128.525574 162.532440,128.017319 164.529083,126.636169 
	C165.598663,125.896294 166.382477,123.332603 168.000427,126.357651 
z"/>
<path fill="#000000" opacity="1.000000" stroke="none" 
	d="
M208.260147,105.861496 
	C211.515091,102.487457 207.267181,99.118340 209.040787,94.869652 
	C211.786224,98.731110 213.222183,102.196182 211.707077,106.106529 
	C210.723419,108.645279 208.204346,109.617012 205.484482,108.935158 
	C202.292023,108.134811 200.167053,102.964203 200.965546,98.075081 
	C204.767578,99.526733 202.186081,106.590317 208.260147,105.861496 
z"/>
<path fill="#000000" opacity="1.000000" stroke="none" 
	d="
M371.266998,147.206772 
	C367.783936,149.458466 372.821136,150.946198 371.298706,153.431976 
	C368.704987,152.273758 366.105225,150.023087 362.633698,151.778275 
	C364.119690,147.637711 367.229889,144.796814 370.680389,143.813766 
	C373.901825,142.896011 374.989258,146.884735 376.700989,149.592758 
	C373.859100,150.471634 373.175629,147.813599 371.266998,147.206772 
z"/>
<path fill="#000000" opacity="1.000000" stroke="none" 
	d="
M203.686523,398.586273 
	C205.478226,402.426514 207.227936,401.773071 208.941574,398.879395 
	C210.116714,396.895050 209.939636,394.124847 212.574158,392.900909 
	C212.464539,396.732178 212.761642,400.904755 208.778763,402.974304 
	C206.665237,404.072510 203.657455,404.075500 202.032776,401.590759 
	C199.280045,397.380798 201.913498,393.962067 204.048782,389.588074 
	C206.035812,393.260101 203.778030,395.686371 203.686523,398.586273 
z"/>
<path fill="#000000" opacity="1.000000" stroke="none" 
	d="
M299.939056,401.792542 
	C297.564240,403.862549 295.301941,403.698639 292.695770,402.892883 
	C294.025116,400.643585 297.314148,402.054077 297.894043,399.044861 
	C295.588745,397.173981 288.959900,400.391479 290.695221,393.582489 
	C291.357300,390.984589 293.872345,390.457642 297.412781,391.735168 
	C297.435852,392.815552 296.553284,392.989960 295.822021,393.302826 
	C295.080536,393.620056 294.259460,393.840027 294.154144,395.152924 
	C296.531647,396.765594 303.003174,394.950134 299.939056,401.792542 
z"/>
<path fill="#000000" opacity="1.000000" stroke="none" 
	d="
M370.489777,355.175903 
	C369.269806,357.861908 368.159851,355.908875 367.111877,355.215820 
	C366.010040,354.487091 365.041595,353.550781 364.042358,352.673828 
	C359.394287,348.594391 360.199127,345.659454 366.608643,343.432190 
	C367.471313,345.676880 364.056274,346.505829 364.860870,348.738190 
	C367.277557,351.063202 368.184937,346.413635 370.657990,347.660950 
	C370.500397,349.978027 367.123993,352.458496 370.489777,355.175903 
z"/>
<path fill="#000000" opacity="1.000000" stroke="none" 
	d="
M276.948547,98.084839 
	C275.161041,99.838104 275.888153,102.645012 272.660553,104.285400 
	C273.446045,99.379150 270.294617,95.822334 269.916687,91.432129 
	C273.166534,91.064072 272.643524,94.435478 274.492554,94.998962 
	C276.902496,95.379356 277.395294,91.665367 280.218597,92.549622 
	C280.654236,95.161934 278.216125,96.112045 276.948547,98.084839 
z"/>
<path fill="#000000" opacity="1.000000" stroke="none" 
	d="
M275.736664,404.812531 
	C275.690613,406.092102 276.134430,407.174805 274.328949,408.038116 
	C272.717682,404.105408 269.890625,400.876923 267.264893,397.039734 
	C270.765930,395.651794 271.305756,399.280792 273.602386,399.710632 
	C275.733459,399.097046 274.834656,395.689545 277.686340,395.052765 
	C279.288086,398.650269 275.541351,401.238617 275.736664,404.812531 
z"/>
<path fill="#000000" opacity="1.000000" stroke="none" 
	d="
M355.326721,360.059875 
	C353.656677,358.684387 352.290649,360.994476 350.502716,359.672760 
	C351.954987,356.369568 354.371857,354.143982 357.956818,352.475922 
	C358.616119,354.894104 355.593414,356.991943 358.390930,359.058502 
	C360.081512,360.307434 362.282440,361.736115 362.169250,364.942749 
	C358.816406,364.755157 357.699524,361.738281 355.326721,360.059875 
z"/>
<path fill="#000000" opacity="1.000000" stroke="none" 
	d="
M135.497192,137.312500 
	C137.617142,135.093948 139.111862,132.567734 143.146332,131.638763 
	C139.086014,137.921066 146.839859,139.415619 147.335342,143.779755 
	C145.518219,144.763794 144.789169,143.645096 144.016449,142.856552 
	C141.752472,140.546204 139.833038,137.632141 135.775558,139.172699 
	C135.292343,139.356171 135.015717,138.285248 135.497192,137.312500 
z"/>
<path fill="#000000" opacity="1.000000" stroke="none" 
	d="
M141.445435,360.560791 
	C144.152924,358.571075 144.124496,356.065643 143.215134,352.953094 
	C147.362701,354.205780 149.548050,356.466370 151.454285,360.803558 
	C145.199539,357.401489 143.890793,363.985138 139.762436,365.101471 
	C138.740448,362.984772 140.459885,362.057129 141.445435,360.560791 
z"/>
<path fill="#000000" opacity="1.000000" stroke="none" 
	d="
M365.397705,136.418640 
	C365.911041,137.063492 366.245605,137.442841 366.455078,137.881912 
	C366.582520,138.149017 366.517029,138.508194 366.576904,139.405090 
	C361.009888,136.215912 359.738220,143.452057 355.138092,143.927109 
	C354.912018,139.120102 362.464661,137.715271 359.092346,132.183273 
	C362.346680,132.485519 363.355438,134.904312 365.397705,136.418640 
z"/>
<path fill="#000000" opacity="1.000000" stroke="none" 
	d="
M382.993103,175.049606 
	C386.061157,173.750504 388.294403,171.217789 392.278107,171.281479 
	C390.764008,174.698257 387.871674,175.150742 385.830811,176.604614 
	C382.836365,178.737823 386.987701,181.182877 385.462372,183.349319 
	C381.140594,180.890533 380.339691,178.520523 382.993103,175.049606 
z"/>
<path fill="#000000" opacity="1.000000" stroke="none" 
	d="
M392.874207,324.969727 
	C391.211517,329.836060 388.545532,330.277496 384.937988,327.471863 
	C383.114990,326.054077 380.245758,325.945984 379.125763,323.001617 
	C382.469604,321.987946 384.334839,324.360260 386.583801,325.361084 
	C390.038147,326.898254 390.174530,322.597473 392.410004,322.141876 
	C393.872314,322.748871 393.192810,323.766602 392.874207,324.969727 
z"/>
<path fill="#000000" opacity="1.000000" stroke="none" 
	d="
M118.523361,176.109131 
	C115.846100,174.142059 112.427650,173.674805 110.312469,169.786850 
	C115.081085,170.134476 118.220360,172.301254 120.627441,174.827789 
	C122.280502,176.562897 120.177551,176.615555 118.523361,176.109131 
z"/>
<path fill="#000000" opacity="1.000000" stroke="none" 
	d="
M385.830933,311.397278 
	C389.774414,310.928772 392.745453,312.139313 396.636414,315.475128 
	C393.502228,316.519928 389.854492,315.251801 385.830933,311.397278 
z"/>
<path fill="#000000" opacity="1.000000" stroke="none" 
	d="
M387.618439,188.822586 
	C391.004211,186.393372 394.435455,184.677155 398.936707,183.712051 
	C396.072815,188.194839 390.729553,190.460266 387.618439,188.822586 
z"/>
<path fill="#000000" opacity="1.000000" stroke="none" 
	d="
M113.025894,330.492004 
	C113.148582,327.199066 117.593330,324.258759 122.623848,324.211212 
	C120.352722,327.894684 116.614189,328.862732 113.025894,330.492004 
z"/>
<path fill="#000000" opacity="1.000000" stroke="none" 
	d="
M298.851593,231.191711 
	C268.945374,222.632446 248.200638,242.780914 241.432495,267.197998 
	C240.608536,270.170532 239.294693,273.188324 240.968201,276.410156 
	C241.992554,278.382294 239.435379,279.349426 239.315338,281.286102 
	C238.332382,297.143494 239.417511,312.625061 247.892303,326.599762 
	C255.101807,338.488037 265.627319,345.194550 279.791412,345.910309 
	C295.815155,346.720032 309.933075,343.498260 319.373322,328.912659 
	C321.589172,325.489044 324.242920,326.398102 328.945160,331.933289 
	C325.674011,337.005951 321.261414,341.144897 315.852966,343.712036 
	C292.969757,354.573700 270.237640,355.746643 248.736450,340.444916 
	C236.099884,331.451935 230.493790,317.935974 227.519104,303.184448 
	C227.126205,301.236084 226.611435,299.215088 226.753189,297.271484 
	C227.887817,281.715210 223.125977,267.464752 217.246338,253.457367 
	C211.281097,239.246033 215.300247,241.230408 198.859253,241.126892 
	C186.695816,241.050293 174.529892,241.200027 162.368866,241.008392 
	C158.625824,240.949387 156.571655,242.245163 155.311478,245.798096 
	C153.197906,251.756973 150.593399,257.539734 148.353760,263.456543 
	C146.597000,268.097595 144.583817,272.720886 145.537186,277.801727 
	C142.441925,279.549805 139.757080,278.146332 137.632660,278.119568 
	C155.805969,238.471756 169.735046,197.185486 186.572144,157.092270 
	C187.199890,155.597504 187.354599,153.835510 189.803696,152.277771 
	C203.382309,186.795929 216.877731,221.102646 230.294754,255.210007 
	C233.650986,254.869064 234.324890,252.807404 235.330063,251.164230 
	C245.969971,233.771194 261.963104,225.817078 281.855652,224.672729 
	C296.187286,223.848297 309.667511,226.497803 322.002869,234.168243 
	C324.680817,235.833481 327.643707,236.966095 331.615082,236.579819 
	C330.366852,242.654861 328.099579,247.685165 325.396149,253.797348 
	C318.021271,243.974060 311.554626,234.030670 298.851593,231.191711 
M205.930893,224.468155 
	C199.077042,206.980621 192.223190,189.493088 185.369339,172.005569 
	C184.906036,172.074921 184.442734,172.144272 183.979431,172.213623 
	C176.242935,192.211014 168.459503,212.190475 160.803955,232.218811 
	C158.962387,237.036652 159.433762,237.547043 164.791733,237.569626 
	C175.117661,237.613159 185.444931,237.657562 195.769547,237.530365 
	C200.199478,237.475800 204.624130,236.993530 209.206863,236.695480 
	C209.309311,232.165237 207.403061,228.765945 205.930893,224.468155 
z"/>
</svg>